<svg width="30" height="61" viewBox="0 0 30 61" fill="none" xmlns="http://www.w3.org/2000/svg">
<path d="M1.10942 31.9063L1.10919 31.9061C0.929064 31.7229 0.774948 31.4796 0.66626 31.1893C0.557659 30.8992 0.499718 30.5761 0.499718 30.2457C0.499718 29.9152 0.557659 29.5921 0.666258 29.3021C0.774948 29.0118 0.929064 28.7684 1.10919 28.5852L1.10942 28.585L28.6231 0.563717C28.6277 0.584084 28.6309 0.609154 28.6309 0.639683V6.80826C28.6309 7.09669 28.5296 7.33421 28.4034 7.46072L28.4008 7.46339L6.369 29.8953L6.02489 30.2457L6.369 30.596L28.3989 53.026C28.3992 53.0263 28.3994 53.0265 28.3997 53.0268C28.5272 53.1586 28.6309 53.4011 28.6309 53.6831V59.8517H28.6309L28.6309 59.8535C28.631 59.8804 28.6278 59.9053 28.6226 59.9271L1.10942 31.9063Z" fill="white" stroke="black"/>
</svg>
