<svg width="30" height="61" viewBox="0 0 30 61" fill="none" xmlns="http://www.w3.org/2000/svg">
<path d="M28.8906 28.6675L28.8908 28.6677C29.0709 28.851 29.2251 29.0943 29.3337 29.3846C29.4423 29.6746 29.5003 29.9977 29.5003 30.3282C29.5003 30.6586 29.4423 30.9817 29.3337 31.2718C29.2251 31.5621 29.0709 31.8054 28.8908 31.9886L28.8906 31.9888L1.37693 60.0101C1.3723 59.9898 1.36915 59.9647 1.36915 59.9342V53.7656C1.36915 53.4772 1.47041 53.2396 1.59656 53.1131L1.59918 53.1105L23.631 30.6785L23.9751 30.3282L23.631 29.9778L1.60111 7.54786C1.60085 7.5476 1.60059 7.54733 1.60033 7.54707C1.47279 7.41522 1.36915 7.17272 1.36915 6.89077V0.722187H1.36915L1.36914 0.720369C1.36904 0.693474 1.37222 0.668587 1.37741 0.646703L28.8906 28.6675Z" fill="white" stroke="black"/>
</svg>
