<svg width="150" height="150" viewBox="0 0 180 180" fill="none" xmlns="http://www.w3.org/2000/svg">
<g clip-path="url(#clip0_126_4333)">
<path d="M108.75 94.425L115.5 123.525L90 108.15L64.5 123.525L71.25 94.5L48.75 75.075L78.45 72.525L90 45.15L101.55 72.45L131.25 75L108.75 94.425ZM90 23.925L142.5 47.25V82.5C142.5 116.4 120.15 147.675 90 156.975C59.85 147.675 37.5 116.4 37.5 82.5V47.25L90 23.925ZM90 7.5L22.5 37.5V82.5C22.5 124.125 51.3 163.05 90 172.5C128.7 163.05 157.5 124.125 157.5 82.5V37.5L90 7.5Z" fill="#323232"/>
</g>
<defs>
<clipPath id="clip0_126_4333">
<rect width="180" height="180" fill="white"/>
</clipPath>
</defs>
</svg>
