<svg width="150" height="150" viewBox="0 0 180 180" fill="none" xmlns="http://www.w3.org/2000/svg">
<g clip-path="url(#clip0_126_4338)">
<path d="M142.5 105V45C142.5 36.75 135.75 30 127.5 30H22.5C14.25 30 7.5 36.75 7.5 45V105C7.5 113.25 14.25 120 22.5 120H127.5C135.75 120 142.5 113.25 142.5 105ZM127.5 105H22.5V45H127.5V105ZM75 52.5C62.55 52.5 52.5 62.55 52.5 75C52.5 87.45 62.55 97.5 75 97.5C87.45 97.5 97.5 87.45 97.5 75C97.5 62.55 87.45 52.5 75 52.5ZM172.5 52.5V135C172.5 143.25 165.75 150 157.5 150H30C30 142.5 30 143.25 30 135H157.5V52.5C165.75 52.5 165 52.5 172.5 52.5Z" fill="#323232"/>
</g>
<defs>
<clipPath id="clip0_126_4338">
<rect width="180" height="180" fill="white"/>
</clipPath>
</defs>
</svg>
