<svg width="33" height="32" viewBox="0 0 33 32" fill="none" xmlns="http://www.w3.org/2000/svg">
<path d="M19.4109 13.1509C19.4109 13.5651 19.7467 13.9009 20.1609 13.9009C20.5751 13.9009 20.9109 13.5651 20.9109 13.1509H19.4109ZM16.5019 9.9776L16.5019 9.2276H16.5017L16.5019 9.9776ZM13.5877 18.8575C13.592 18.4433 13.2596 18.1041 12.8455 18.0998C12.4313 18.0956 12.092 18.4279 12.0878 18.8421L13.5877 18.8575ZM16.4967 22.0231V22.7731H16.5081L16.5194 22.7727L16.4967 22.0231ZM15.7493 23.8211C15.7493 24.2353 16.0851 24.5711 16.4993 24.5711C16.9136 24.5711 17.2493 24.2353 17.2493 23.8211H15.7493ZM17.2493 8.17956C17.2493 7.76534 16.9136 7.42956 16.4993 7.42956C16.0851 7.42956 15.7493 7.76534 15.7493 8.17956H17.2493ZM20.1609 13.1509C20.9109 13.1509 20.9109 13.1504 20.9109 13.15C20.9109 13.1498 20.9109 13.1494 20.9109 13.149C20.9109 13.1484 20.9109 13.1476 20.9109 13.1469C20.9109 13.1454 20.9109 13.1436 20.9109 13.1417C20.9108 13.1379 20.9108 13.1332 20.9107 13.1278C20.9105 13.117 20.9101 13.1032 20.9095 13.0864C20.9082 13.053 20.9058 13.008 20.9012 12.953C20.8922 12.8432 20.8746 12.6923 20.8403 12.5135C20.7721 12.159 20.6347 11.6777 20.3533 11.1897C19.7622 10.1644 18.5999 9.22765 16.5019 9.2276L16.5019 10.7276C18.0629 10.7276 18.7301 11.3775 19.0538 11.9389C19.2298 12.2441 19.321 12.5562 19.3672 12.7966C19.39 12.9153 19.401 13.0123 19.4063 13.0761C19.4089 13.1079 19.4101 13.131 19.4106 13.144C19.4108 13.1505 19.4109 13.1545 19.4109 13.1557C19.4109 13.1563 19.4109 13.1562 19.4109 13.1554C19.4109 13.155 19.4109 13.1545 19.4109 13.1537C19.4109 13.1533 19.4109 13.1529 19.4109 13.1524C19.4109 13.1522 19.4109 13.1518 19.4109 13.1517C19.4109 13.1513 19.4109 13.1509 20.1609 13.1509ZM16.2573 16.7093L16.2599 16.7102L16.7439 15.2905L16.7414 15.2896L16.2573 16.7093ZM12.8377 18.8498C12.0878 18.8421 12.0878 18.8425 12.0878 18.8429C12.0878 18.8431 12.0877 18.8436 12.0877 18.8439C12.0877 18.8446 12.0877 18.8453 12.0877 18.8461C12.0877 18.8476 12.0877 18.8493 12.0877 18.8513C12.0877 18.8551 12.0877 18.8598 12.0878 18.8652C12.0879 18.8761 12.0881 18.89 12.0886 18.9068C12.0895 18.9403 12.0915 18.9855 12.0955 19.0406C12.1035 19.1506 12.1197 19.3019 12.1526 19.481C12.2179 19.8364 12.3519 20.3189 12.6316 20.8085C13.2201 21.8384 14.3851 22.7731 16.4967 22.7731V21.2731C14.9166 21.2731 14.2521 20.621 13.934 20.0643C13.7605 19.7606 13.672 19.4498 13.628 19.2102C13.6062 19.0919 13.5962 18.9952 13.5915 18.9317C13.5892 18.9001 13.5883 18.877 13.588 18.8641C13.5878 18.8576 13.5877 18.8537 13.5877 18.8526C13.5877 18.852 13.5877 18.8521 13.5877 18.8529C13.5877 18.8533 13.5877 18.8539 13.5877 18.8547C13.5877 18.8551 13.5877 18.8555 13.5877 18.856C13.5877 18.8562 13.5877 18.8566 13.5877 18.8567C13.5877 18.8571 13.5877 18.8575 12.8377 18.8498ZM16.5194 22.7727L16.522 22.7726L16.4767 21.2733L16.4741 21.2734L16.5194 22.7727ZM16.5223 22.7726C18.3934 22.7153 20.1508 21.5249 20.5418 19.863C20.7449 19 20.5527 18.0828 19.9021 17.2666C19.2673 16.4702 18.2213 15.7965 16.7416 15.2914L16.2571 16.711C17.5758 17.1611 18.3336 17.7053 18.7292 18.2015C19.1089 18.678 19.1737 19.1283 19.0817 19.5195C18.8825 20.3661 17.8415 21.2315 16.4764 21.2733L16.5223 22.7726ZM16.7414 15.2913L16.7388 15.2905L16.2547 16.7102L16.2573 16.7111L16.7414 15.2913ZM15.7493 15.9995V16.0012H17.2493V15.9995H15.7493ZM15.7493 16.0012V22.023H17.2493V16.0012H15.7493ZM15.7493 22.023V23.8211H17.2493V22.023H15.7493ZM16.5017 9.2276L16.4992 9.2276L16.4995 10.7276L16.5021 10.7276L16.5017 9.2276ZM16.4989 9.2276C14.3275 9.22892 12.6857 10.7064 12.4375 12.4748C12.3119 13.3695 12.5534 14.3047 13.2251 15.0862C13.8896 15.8593 14.9327 16.4359 16.3447 16.7333L16.6539 15.2656C15.469 15.016 14.7565 14.5666 14.3627 14.1084C13.976 13.6586 13.8564 13.1571 13.9229 12.6833C14.0589 11.7149 15.014 10.7285 16.4998 10.7276L16.4989 9.2276ZM15.7493 8.17956V9.9776H17.2493V8.17956H15.7493ZM15.7493 9.9776V15.9995H17.2493V9.9776H15.7493ZM29.0827 16.0003C29.0827 22.9499 23.4489 28.5837 16.4993 28.5837V30.0837C24.2774 30.0837 30.5827 23.7783 30.5827 16.0003H29.0827ZM16.4993 28.5837C9.54977 28.5837 3.91602 22.9499 3.91602 16.0003H2.41602C2.41602 23.7783 8.72134 30.0837 16.4993 30.0837V28.5837ZM3.91602 16.0003C3.91602 9.05074 9.54977 3.41699 16.4993 3.41699V1.91699C8.72134 1.91699 2.41602 8.22232 2.41602 16.0003H3.91602ZM16.4993 3.41699C23.4489 3.41699 29.0827 9.05074 29.0827 16.0003H30.5827C30.5827 8.22232 24.2774 1.91699 16.4993 1.91699V3.41699Z" fill="#282828"/>
</svg>
