<svg width="16" height="20" viewBox="0 0 16 20" fill="none" xmlns="http://www.w3.org/2000/svg">
<path d="M1 7.9231C1 12.7749 5.38586 16.6227 7.12319 18.3255L7.12392 18.3261C7.39332 18.5466 7.52806 18.657 7.72885 18.7135C7.88505 18.7575 8.1148 18.7575 8.271 18.7135C8.47197 18.6569 8.60707 18.5464 8.87695 18.3255C10.5124 16.6932 15 12.7749 15 7.92306C15 6.08695 14.2625 4.32605 12.9497 3.02772C11.637 1.72939 9.85656 1 8.00004 1C6.14353 1 4.36301 1.72938 3.05025 3.02771C1.7375 4.32604 1 6.08698 1 7.9231Z" stroke="#1FC903" stroke-width="2" stroke-linecap="round" stroke-linejoin="round"/>
</svg>
