<svg width="20" height="20" viewBox="0 0 20 20" fill="none" xmlns="http://www.w3.org/2000/svg">
<g clip-path="url(#clip0_110_3231)">
<path d="M9.16602 3.33333H3.33268C2.89065 3.33333 2.46673 3.50892 2.15417 3.82148C1.84161 4.13404 1.66602 4.55797 1.66602 4.99999V16.6667C1.66602 17.1087 1.84161 17.5326 2.15417 17.8452C2.46673 18.1577 2.89065 18.3333 3.33268 18.3333H14.9993C15.4414 18.3333 15.8653 18.1577 16.1779 17.8452C16.4904 17.5326 16.666 17.1087 16.666 16.6667V10.8333" stroke="#8C8E90" stroke-width="2" stroke-linecap="round" stroke-linejoin="round"/>
<path d="M15.416 2.08333C15.7475 1.75181 16.1972 1.56557 16.666 1.56557C17.1349 1.56557 17.5845 1.75181 17.916 2.08333C18.2475 2.41485 18.4338 2.86449 18.4338 3.33333C18.4338 3.80217 18.2475 4.25181 17.916 4.58333L9.99935 12.5L6.66602 13.3333L7.49935 10L15.416 2.08333Z" stroke="#8C8E90" stroke-width="2" stroke-linecap="round" stroke-linejoin="round"/>
</g>
<defs>
<clipPath id="clip0_110_3231">
<rect width="20" height="20" fill="white"/>
</clipPath>
</defs>
</svg>
