<svg width="150" height="150" viewBox="0 0 180 180" fill="none" xmlns="http://www.w3.org/2000/svg">
<g clip-path="url(#clip0_126_4436)">
<path d="M150 60H127.5V30H22.5C14.25 30 7.5 36.75 7.5 45V127.5H22.5C22.5 139.95 32.55 150 45 150C57.45 150 67.5 139.95 67.5 127.5H112.5C112.5 139.95 122.55 150 135 150C147.45 150 157.5 139.95 157.5 127.5H172.5V90L150 60ZM146.25 71.25L160.95 90H127.5V71.25H146.25ZM45 135C40.875 135 37.5 131.625 37.5 127.5C37.5 123.375 40.875 120 45 120C49.125 120 52.5 123.375 52.5 127.5C52.5 131.625 49.125 135 45 135ZM61.65 112.5C57.525 107.925 51.675 105 45 105C38.325 105 32.475 107.925 28.35 112.5H22.5V45H112.5V112.5H61.65ZM135 135C130.875 135 127.5 131.625 127.5 127.5C127.5 123.375 130.875 120 135 120C139.125 120 142.5 123.375 142.5 127.5C142.5 131.625 139.125 135 135 135Z" fill="#703C0D"/>
</g>
<defs>
<clipPath id="clip0_126_4436">
<rect width="180" height="180" fill="white"/>
</clipPath>
</defs>
</svg>
